<?xml version="1.0" encoding="utf-8"?>
<!-- Generator: Adobe Illustrator 16.0.0, SVG Export Plug-In . SVG Version: 6.00 Build 0)  -->
<!DOCTYPE svg PUBLIC "-//W3C//DTD SVG 1.1//EN" "http://www.w3.org/Graphics/SVG/1.1/DTD/svg11.dtd">
<svg version="1.1" id="Layer_1" xmlns="http://www.w3.org/2000/svg" xmlns:xlink="http://www.w3.org/1999/xlink" x="0px" y="0px"
	 width="434.625px" height="446.417px" viewBox="0 0 434.625 446.417" enable-background="new 0 0 434.625 446.417"
	 xml:space="preserve">
<path fill="none" stroke="#231F20" stroke-width="3" stroke-miterlimit="10" d="M8.131,141.175
	c70.185,10.919,146.449,1.409,217.027,1.409c66.235,0,139.244-11.065,203.791,11.268"/>
<path fill="none" stroke="#231F20" stroke-width="3" stroke-miterlimit="10" d="M0.793,285.852
	c27.816,17.336,81.475,5.634,112.35,5.634c107.161,0,214.321,0,321.481,0"/>
<path fill="none" stroke="#231F20" stroke-width="3" stroke-miterlimit="10" d="M154.625,1.189c-0.009,83.749,2,167.36,2,251.15
	c0,61.687,4.941,127.577-1,188.85"/>
<path fill="none" stroke="#231F20" stroke-width="3" stroke-miterlimit="10" d="M288.625,0.189
	c3.879,30.494,1.267,61.415,1.845,92.139c1.46,77.575,2.885,154.99,3.132,232.652c0.122,38.528,5.029,82.008-0.925,119.861
	c-3.654,0.528-0.919-1.824-2.052-4.221"/>
<rect x="26.625" y="12.189" fill="none" stroke="#000000" stroke-width="5" stroke-miterlimit="10" width="118" height="119"/>
<path fill="none" stroke="#000000" stroke-width="0.5" stroke-miterlimit="10" d="M55.625,49.189c12.247,18.255,37.316,40.07,57,51"
	/>
<path fill="none" stroke="#000000" stroke-width="0.5" stroke-miterlimit="10" d="M96.625,45.189c-9.244,21.115-26.131,43.083-39,62
	"/>
<path fill="none" stroke="#000000" stroke-width="0.5" stroke-miterlimit="10" d="M63.625,52.189
	c-6.844,14.766-20.812,40.245-6.188,51.039c15.884,11.724,49.176,1.798,53.307-17.164c7.043-32.323-47.479-62.218-45.119-30.875"/>
<rect x="165.625" y="14.189" fill="none" stroke="#000000" stroke-width="5" stroke-miterlimit="10" width="118" height="119"/>
<path fill="none" stroke="#000000" stroke-width="0.5" stroke-miterlimit="10" d="M196.625,45.189c12.247,18.255,37.316,40.07,57,51
	"/>
<path fill="none" stroke="#000000" stroke-width="0.5" stroke-miterlimit="10" d="M237.625,41.189
	c-9.244,21.115-26.131,43.083-39,62"/>
<path fill="none" stroke="#000000" stroke-width="0.5" stroke-miterlimit="10" d="M204.625,48.189
	c-6.844,14.766-20.812,40.245-6.188,51.039c15.884,11.724,49.176,1.798,53.307-17.164c7.043-32.323-47.479-62.218-45.119-30.875"/>
<rect x="299.625" y="12.189" fill="none" stroke="#000000" stroke-width="5" stroke-miterlimit="10" width="118" height="119"/>
<path fill="none" stroke="#000000" stroke-width="0.5" stroke-miterlimit="10" d="M330.625,43.189c12.246,18.255,37.316,40.07,57,51
	"/>
<path fill="none" stroke="#000000" stroke-width="0.5" stroke-miterlimit="10" d="M371.625,39.189
	c-9.244,21.115-26.131,43.083-39,62"/>
<path fill="none" stroke="#000000" stroke-width="0.5" stroke-miterlimit="10" d="M338.625,46.189
	c-6.844,14.766-20.812,40.245-6.188,51.039c15.884,11.724,49.176,1.798,53.307-17.164c7.043-32.323-47.479-62.218-45.119-30.875"/>
<rect x="19.625" y="162.189" fill="none" stroke="#000000" stroke-width="5" stroke-miterlimit="10" width="118" height="119"/>
<path fill="none" stroke="#000000" stroke-width="0.5" stroke-miterlimit="10" d="M50.625,193.189c12.246,18.255,37.316,40.07,57,51
	"/>
<path fill="none" stroke="#000000" stroke-width="0.5" stroke-miterlimit="10" d="M91.625,189.189
	c-9.244,21.115-26.131,43.083-39,62"/>
<path fill="none" stroke="#000000" stroke-width="0.5" stroke-miterlimit="10" d="M58.625,196.189
	c-6.844,14.766-20.812,40.244-6.188,51.039c15.884,11.725,49.176,1.799,53.307-17.164c7.043-32.323-47.479-62.218-45.119-30.875"/>
<rect x="164.625" y="161.189" fill="none" stroke="#000000" stroke-width="5" stroke-miterlimit="10" width="118" height="119"/>
<path fill="none" stroke="#000000" stroke-width="0.5" stroke-miterlimit="10" d="M195.625,192.189
	c12.246,18.255,37.316,40.07,57,51"/>
<path fill="none" stroke="#000000" stroke-width="0.5" stroke-miterlimit="10" d="M236.625,188.189
	c-9.244,21.115-26.131,43.083-39,62"/>
<path fill="none" stroke="#000000" stroke-width="0.5" stroke-miterlimit="10" d="M203.625,195.189
	c-6.844,14.766-20.812,40.244-6.188,51.039c15.884,11.725,49.176,1.799,53.307-17.164c7.043-32.323-47.479-62.218-45.119-30.875"/>
<rect x="304.625" y="161.189" fill="none" stroke="#000000" stroke-width="5" stroke-miterlimit="10" width="118" height="119"/>
<path fill="none" stroke="#000000" stroke-width="0.5" stroke-miterlimit="10" d="M335.625,192.189
	c12.246,18.255,37.316,40.07,57,51"/>
<path fill="none" stroke="#000000" stroke-width="0.5" stroke-miterlimit="10" d="M376.625,188.189
	c-9.244,21.115-26.131,43.083-39,62"/>
<path fill="none" stroke="#000000" stroke-width="0.5" stroke-miterlimit="10" d="M343.625,195.189
	c-6.844,14.766-20.812,40.244-6.188,51.039c15.884,11.725,49.176,1.799,53.307-17.164c7.043-32.323-47.479-62.218-45.119-30.875"/>
<rect x="24.625" y="301.189" fill="none" stroke="#000000" stroke-width="5" stroke-miterlimit="10" width="118" height="119"/>
<path fill="none" stroke="#000000" stroke-width="0.5" stroke-miterlimit="10" d="M55.625,332.189c12.246,18.255,37.316,40.07,57,51
	"/>
<path fill="none" stroke="#000000" stroke-width="0.5" stroke-miterlimit="10" d="M96.625,328.189
	c-9.244,21.115-26.131,43.083-39,62"/>
<path fill="none" stroke="#000000" stroke-width="0.5" stroke-miterlimit="10" d="M63.625,335.189
	c-6.844,14.766-20.812,40.244-6.188,51.039c15.884,11.725,49.176,1.799,53.307-17.164c7.043-32.322-47.479-62.217-45.119-30.875"/>
<rect x="168.625" y="302.189" fill="none" stroke="#000000" stroke-width="5" stroke-miterlimit="10" width="118" height="119"/>
<path fill="none" stroke="#000000" stroke-width="0.5" stroke-miterlimit="10" d="M199.625,333.189
	c12.246,18.255,37.316,40.07,57,51"/>
<path fill="none" stroke="#000000" stroke-width="0.5" stroke-miterlimit="10" d="M236.625,328.189
	c-9.244,21.115-26.131,43.083-39,62"/>
<path fill="none" stroke="#000000" stroke-width="0.5" stroke-miterlimit="10" d="M207.625,336.189
	c-6.844,14.766-20.812,40.244-6.188,51.039c15.884,11.725,49.176,1.799,53.307-17.164c7.043-32.322-47.479-62.217-45.119-30.875"/>
<rect x="304.625" y="301.189" fill="none" stroke="#000000" stroke-width="5" stroke-miterlimit="10" width="118" height="119"/>
<path fill="none" stroke="#000000" stroke-width="0.5" stroke-miterlimit="10" d="M335.625,332.189
	c12.246,18.255,37.316,40.07,57,51"/>
<path fill="none" stroke="#000000" stroke-width="0.5" stroke-miterlimit="10" d="M376.625,328.189
	c-9.244,21.115-26.131,43.083-39,62"/>
<path fill="none" stroke="#000000" stroke-width="0.5" stroke-miterlimit="10" d="M343.625,335.189
	c-6.844,14.766-20.812,40.244-6.188,51.039c15.884,11.725,49.176,1.799,53.307-17.164c7.043-32.322-47.479-62.217-45.119-30.875"/>
</svg>
