<?xml version="1.0" encoding="utf-8"?>
<!-- Generator: Adobe Illustrator 16.0.0, SVG Export Plug-In . SVG Version: 6.00 Build 0)  -->
<!DOCTYPE svg PUBLIC "-//W3C//DTD SVG 1.1//EN" "http://www.w3.org/Graphics/SVG/1.1/DTD/svg11.dtd">
<svg version="1.1" id="Layer_1" xmlns="http://www.w3.org/2000/svg" xmlns:xlink="http://www.w3.org/1999/xlink" x="0px" y="0px"
	 width="156.467px" height="196.154px" viewBox="0 0 156.467 196.154" enable-background="new 0 0 156.467 196.154"
	 xml:space="preserve">
<g>
	<g>
		<path fill="#C9C9C9" d="M10.086,173.56c-0.019-0.057,0.131-0.209,0.446-0.463c0.317-0.25,0.702-0.574,1.157-0.965
			c0.455-0.393,0.938-0.852,1.45-1.377c0.513-0.525,0.957-1.098,1.333-1.723c0.375-0.623,0.643-1.291,0.802-2.006
			c0.159-0.713,0.11-1.449-0.148-2.209c-0.176-0.516-0.53-1.041-1.062-1.572s-1.154-1.025-1.867-1.484
			c-0.713-0.457-1.5-0.877-2.361-1.254c-0.86-0.377-1.703-0.684-2.525-0.92c-0.823-0.234-1.601-0.383-2.333-0.443
			s-1.339-0.008-1.819,0.154c0.371,1.092,0.792,2.16,1.262,3.207s0.946,2.098,1.428,3.15c0.482,1.055,0.959,2.104,1.429,3.15
			s0.895,2.125,1.272,3.234c0.081,0.24,0.124,0.443,0.129,0.605c0.004,0.164-0.145,0.381-0.446,0.646l-0.408-0.201l-6.129-13.727
			c-0.037,0.012-0.139,0-0.306-0.035c-0.167-0.037-0.342-0.08-0.524-0.131s-0.36-0.121-0.534-0.205
			c-0.173-0.086-0.279-0.184-0.316-0.295c-0.038-0.111,0.002-0.279,0.121-0.506s0.264-0.455,0.432-0.689
			c0.168-0.23,0.334-0.443,0.496-0.633s0.29-0.299,0.382-0.33c0.277-0.096,0.472-0.088,0.579,0.02
			c0.109,0.107,0.193,0.248,0.254,0.424c0.06,0.176,0.132,0.357,0.217,0.545c0.084,0.189,0.244,0.293,0.479,0.316
			c0.773,0.15,1.588,0.301,2.443,0.453c0.857,0.152,1.73,0.34,2.621,0.563c0.892,0.223,1.756,0.49,2.595,0.803
			c0.839,0.314,1.617,0.703,2.333,1.172c0.717,0.467,1.347,1.016,1.892,1.645c0.544,0.631,0.965,1.381,1.261,2.248
			c0.276,0.814,0.334,1.709,0.17,2.682c-0.164,0.975-0.477,1.906-0.937,2.795c-0.461,0.889-1.041,1.686-1.741,2.387
			c-0.699,0.703-1.446,1.189-2.241,1.461c-0.241,0.082-0.491,0.086-0.755,0.01C10.351,173.986,10.175,173.818,10.086,173.56z"/>
		<path fill="#C9C9C9" d="M18.282,166.994c-0.127-0.369-0.29-0.865-0.492-1.488c-0.201-0.621-0.386-1.303-0.555-2.039
			c-0.168-0.736-0.305-1.5-0.408-2.291c-0.104-0.789-0.118-1.527-0.042-2.213s0.264-1.287,0.563-1.801
			c0.3-0.516,0.764-0.879,1.393-1.094c0.869-0.295,1.648-0.293,2.339,0.008c0.691,0.303,1.301,0.76,1.829,1.373
			c0.529,0.615,0.981,1.307,1.356,2.076c0.376,0.77,0.674,1.479,0.895,2.125c0.239,0.703,0.396,1.496,0.469,2.379
			c0.074,0.883,0.015,1.738-0.178,2.568c-0.192,0.828-0.53,1.578-1.014,2.248c-0.484,0.67-1.17,1.156-2.057,1.457
			c-0.574,0.195-1.082,0.219-1.524,0.07c-0.442-0.146-0.82-0.395-1.135-0.742s-0.593-0.758-0.837-1.232
			C18.639,167.925,18.438,167.457,18.282,166.994z M19.111,166.339c0.12,0.352,0.253,0.715,0.4,1.088
			c0.147,0.371,0.324,0.709,0.53,1.01c0.205,0.301,0.463,0.514,0.773,0.635c0.309,0.121,0.695,0.104,1.157-0.053
			c0.813-0.277,1.421-0.689,1.821-1.24c0.402-0.549,0.66-1.168,0.776-1.857s0.114-1.406-0.005-2.15
			c-0.119-0.742-0.288-1.438-0.509-2.086c-0.138-0.406-0.351-0.922-0.635-1.547c-0.286-0.625-0.634-1.209-1.045-1.75
			s-0.884-0.961-1.421-1.264c-0.535-0.303-1.118-0.348-1.747-0.133c-0.443,0.15-0.768,0.457-0.972,0.918
			c-0.204,0.463-0.322,1.008-0.355,1.639c-0.033,0.629,0.004,1.299,0.11,2.004c0.106,0.707,0.227,1.379,0.36,2.014
			c0.133,0.635,0.276,1.205,0.428,1.711S19.042,166.136,19.111,166.339z"/>
		<path fill="#C9C9C9" d="M54.147,164.533c-0.358-1.055-0.656-2.113-0.896-3.178c-0.238-1.063-0.533-2.113-0.886-3.148
			c-0.151-0.443-0.407-0.785-0.767-1.023s-0.757-0.418-1.189-0.539c-1.2-0.375-2.353-0.715-3.457-1.02s-2.188-0.623-3.249-0.953
			s-2.12-0.695-3.176-1.1s-2.117-0.9-3.183-1.486l0.421-0.855c0.235,0.086,0.599,0.215,1.091,0.389
			c0.492,0.172,1.043,0.367,1.653,0.582c0.609,0.215,1.255,0.443,1.936,0.686c0.682,0.244,1.331,0.473,1.95,0.684
			s1.175,0.404,1.667,0.578c0.492,0.172,0.853,0.293,1.082,0.357c0.253,0.08,0.588,0.168,1.002,0.264s0.826,0.188,1.238,0.273
			c0.411,0.088,0.777,0.164,1.1,0.23c0.321,0.064,0.5,0.092,0.537,0.08l0.333-0.113l-0.122-0.361
			c-0.063-0.246-0.173-0.611-0.327-1.096s-0.325-1.029-0.511-1.637s-0.382-1.258-0.587-1.951s-0.397-1.35-0.577-1.969
			c-0.181-0.621-0.348-1.172-0.502-1.656c-0.154-0.482-0.272-0.846-0.354-1.086c0.005-0.229,0.105-0.402,0.302-0.521
			c0.197-0.117,0.379-0.205,0.545-0.262c0.548,1.607,1.08,3.232,1.598,4.871l1.477,4.883c0.517,1.641,1.031,3.275,1.546,4.904
			c0.514,1.631,1.063,3.244,1.647,4.84c-0.042,0.18-0.102,0.371-0.177,0.572c-0.076,0.201-0.216,0.336-0.419,0.404
			c-0.186,0.064-0.342,0.014-0.469-0.148C54.296,164.863,54.204,164.699,54.147,164.533z"/>
		<path fill="#C9C9C9" d="M54.03,154.824c-0.126-0.369-0.289-0.865-0.491-1.488c-0.201-0.623-0.387-1.303-0.556-2.039
			c-0.168-0.736-0.304-1.5-0.408-2.291c-0.104-0.789-0.117-1.527-0.041-2.215c0.075-0.686,0.264-1.285,0.563-1.801
			c0.3-0.514,0.764-0.879,1.392-1.092c0.869-0.297,1.649-0.293,2.34,0.008c0.69,0.303,1.301,0.76,1.829,1.373
			c0.529,0.615,0.981,1.307,1.356,2.076c0.376,0.77,0.674,1.479,0.894,2.125c0.24,0.703,0.396,1.496,0.47,2.379
			c0.074,0.883,0.015,1.738-0.179,2.566c-0.191,0.83-0.53,1.578-1.014,2.25c-0.483,0.67-1.169,1.154-2.057,1.457
			c-0.573,0.195-1.081,0.219-1.523,0.07s-0.821-0.396-1.135-0.742c-0.314-0.348-0.594-0.758-0.837-1.232
			C54.388,155.753,54.187,155.285,54.03,154.824z M54.86,154.169c0.119,0.352,0.253,0.715,0.4,1.086
			c0.147,0.373,0.324,0.711,0.529,1.012c0.206,0.301,0.464,0.512,0.773,0.635c0.311,0.121,0.695,0.104,1.158-0.055
			c0.813-0.277,1.421-0.689,1.822-1.238c0.4-0.551,0.658-1.17,0.775-1.859c0.115-0.688,0.114-1.404-0.005-2.148
			s-0.288-1.438-0.509-2.086c-0.139-0.406-0.35-0.922-0.636-1.549c-0.284-0.623-0.633-1.207-1.044-1.748s-0.885-0.963-1.421-1.264
			c-0.536-0.303-1.118-0.348-1.747-0.133c-0.444,0.15-0.768,0.457-0.972,0.918s-0.322,1.008-0.355,1.637
			c-0.033,0.631,0.004,1.299,0.11,2.006s0.227,1.377,0.359,2.014c0.135,0.635,0.277,1.205,0.428,1.711
			C54.68,153.611,54.791,153.966,54.86,154.169z"/>
		<path fill="#C9C9C9" d="M67.493,154.914c-0.308,0.248-0.638,0.324-0.99,0.229s-0.707-0.305-1.065-0.627
			c-0.356-0.322-0.705-0.709-1.044-1.162c-0.34-0.451-0.641-0.91-0.903-1.379c-0.263-0.467-0.478-0.9-0.644-1.297
			s-0.262-0.695-0.288-0.893c-0.063-0.184-0.151-0.475-0.265-0.869c-0.114-0.395-0.245-0.84-0.394-1.336
			c-0.147-0.496-0.298-1.014-0.45-1.549c-0.151-0.537-0.303-1.059-0.454-1.563c-0.151-0.506-0.282-0.951-0.393-1.338
			c-0.11-0.383-0.197-0.67-0.261-0.854c0.037-0.014,0.062-0.031,0.074-0.057l0.073-0.057c0.185-0.063,0.37-0.033,0.557,0.09
			c0.187,0.121,0.351,0.242,0.493,0.357c0.088,0.26,0.241,0.723,0.458,1.393c0.218,0.668,0.456,1.381,0.714,2.139
			c0.258,0.76,0.506,1.473,0.745,2.145c0.239,0.674,0.402,1.137,0.49,1.396c0.095,0.215,0.255,0.549,0.479,0.998
			c0.226,0.449,0.477,0.9,0.755,1.352c0.277,0.453,0.581,0.844,0.91,1.176s0.651,0.475,0.967,0.43
			c0.776-0.264,1.33-0.773,1.662-1.525s0.525-1.623,0.581-2.611c0.056-0.99,0.018-2.023-0.112-3.104
			c-0.131-1.08-0.273-2.09-0.427-3.027c-0.154-0.938-0.273-1.727-0.358-2.369c-0.084-0.641-0.053-1.02,0.095-1.131l0.713-0.088
			l5.207,10.203c0.13,0.02,0.251,0.07,0.362,0.156s0.222,0.184,0.331,0.289c0.108,0.107,0.199,0.223,0.271,0.342
			s0.117,0.207,0.136,0.264c0.007,0.141-0.057,0.318-0.19,0.529c-0.135,0.211-0.264,0.348-0.387,0.41l-0.111,0.037
			c-0.019,0.006-0.037,0.012-0.056,0.02c-0.056-0.043-0.137-0.113-0.242-0.213c-0.105-0.098-0.217-0.199-0.335-0.303
			s-0.224-0.219-0.317-0.342s-0.155-0.199-0.187-0.229c-0.118-0.166-0.276-0.434-0.474-0.799c-0.196-0.367-0.403-0.775-0.619-1.229
			s-0.437-0.936-0.662-1.445c-0.226-0.512-0.445-1.004-0.658-1.479s-0.407-0.893-0.582-1.256c-0.176-0.363-0.322-0.629-0.44-0.795
			c0.052,0.457,0.094,1.004,0.126,1.645c0.032,0.639,0.033,1.324,0.004,2.057s-0.096,1.461-0.199,2.188s-0.264,1.42-0.482,2.082
			c-0.219,0.664-0.506,1.256-0.863,1.781C68.484,154.22,68.034,154.626,67.493,154.914z"/>
		<path fill="#C9C9C9" d="M86.305,136.996c-0.037-0.111-0.076-0.24-0.117-0.393c-0.041-0.15-0.072-0.301-0.092-0.449
			s0.002-0.283,0.063-0.408c0.061-0.123,0.174-0.213,0.342-0.27c0.037-0.014,0.098-0.029,0.184-0.049
			c0.088-0.018,0.148-0.035,0.186-0.047c0.465,1.307,0.994,2.633,1.586,3.979c0.594,1.346,1.295,2.604,2.105,3.771
			c-0.051-0.211-0.119-0.574-0.203-1.092c-0.082-0.518-0.166-1.068-0.25-1.648s-0.156-1.127-0.219-1.643s-0.109-0.881-0.143-1.098
			c-0.002-0.432,0.037-0.895,0.117-1.385c0.08-0.492,0.223-0.969,0.426-1.43s0.467-0.871,0.789-1.229s0.705-0.611,1.148-0.762
			c0.74-0.252,1.453-0.309,2.139-0.172c0.688,0.137,1.35,0.402,1.988,0.793c0.639,0.393,1.232,0.881,1.783,1.467
			s1.051,1.205,1.5,1.857c0.447,0.652,0.832,1.295,1.15,1.93c0.32,0.633,0.566,1.209,0.744,1.727l0.113,0.334
			c0.037,0.109,0.061,0.223,0.066,0.332c0.006,0.111-0.012,0.211-0.055,0.297c-0.041,0.088-0.146,0.158-0.313,0.215
			c-0.186,0.063-0.381,0.006-0.584-0.172c-0.176-0.455-0.41-0.975-0.701-1.557s-0.621-1.186-0.988-1.814
			c-0.369-0.627-0.781-1.23-1.234-1.809c-0.455-0.576-0.941-1.066-1.461-1.467c-0.518-0.402-1.063-0.686-1.635-0.852
			s-1.182-0.139-1.83,0.08c-0.518,0.178-0.934,0.422-1.25,0.736s-0.549,0.676-0.697,1.088s-0.229,0.861-0.236,1.35
			c-0.01,0.488,0.033,0.994,0.129,1.52c0.033,0.277,0.117,0.764,0.25,1.461c0.135,0.697,0.275,1.443,0.422,2.24
			c0.148,0.795,0.293,1.541,0.438,2.234c0.143,0.693,0.248,1.174,0.318,1.439c0.008,0.203-0.051,0.348-0.178,0.432
			c-0.125,0.084-0.264,0.15-0.41,0.201c-0.02,0.006-0.066,0.018-0.145,0.033c-0.076,0.016-0.119,0.014-0.125-0.004l-4.857-9.086
			c-0.012-0.035-0.051-0.137-0.117-0.299C86.385,137.216,86.336,137.089,86.305,136.996z"/>
		<path fill="#C9C9C9" d="M102.576,135.789c-0.338,0.404-0.705,0.752-1.102,1.041s-0.787,0.324-1.17,0.105
			c-0.121-0.352-0.08-0.629,0.119-0.83c0.199-0.203,0.439-0.393,0.719-0.57s0.553-0.375,0.82-0.59
			c0.268-0.213,0.4-0.506,0.398-0.877c-0.016-0.408-0.064-0.887-0.148-1.436s-0.125-1.092-0.121-1.629
			c0.002-0.537,0.105-1.021,0.311-1.453c0.203-0.43,0.582-0.74,1.137-0.928c0.314-0.107,0.744-0.135,1.287-0.084
			c0.545,0.053,1.08,0.154,1.605,0.305c0.525,0.152,0.994,0.344,1.402,0.576c0.41,0.232,0.662,0.486,0.756,0.764
			c0.043,0.129,0.07,0.254,0.08,0.375c0.012,0.119-0.055,0.246-0.195,0.377l-4.822,3.744l0.02,0.148
			c0.025,0.074,0.051,0.18,0.076,0.314l0.113,0.334c0.043,0.129,0.076,0.221,0.094,0.277c0.127,0.369,0.311,0.818,0.551,1.344
			c0.242,0.527,0.537,1.014,0.885,1.463c0.35,0.449,0.744,0.805,1.184,1.066c0.441,0.264,0.928,0.303,1.465,0.121
			c0.203-0.068,0.359-0.17,0.471-0.299c0.109-0.131,0.217-0.271,0.322-0.42c0.104-0.148,0.211-0.289,0.32-0.418
			c0.111-0.131,0.258-0.229,0.443-0.291c0.094,0.277,0.123,0.563,0.09,0.852c-0.035,0.291-0.123,0.564-0.264,0.818
			s-0.322,0.48-0.543,0.68s-0.461,0.342-0.721,0.43c-0.701,0.24-1.35,0.188-1.941-0.158s-1.121-0.826-1.588-1.439
			c-0.469-0.615-0.871-1.271-1.213-1.971S102.795,136.251,102.576,135.789z M104.287,129.728c-0.332,0.113-0.582,0.303-0.75,0.566
			c-0.17,0.264-0.279,0.559-0.334,0.887c-0.053,0.328-0.057,0.664-0.012,1.01s0.113,0.648,0.201,0.906
			c0.295-0.1,0.617-0.23,0.965-0.391c0.348-0.158,0.68-0.355,0.992-0.586c0.314-0.23,0.584-0.48,0.811-0.754
			s0.352-0.559,0.375-0.855c-0.428-0.35-0.805-0.604-1.127-0.762S104.713,129.583,104.287,129.728z"/>
		<path fill="#C9C9C9" d="M111.922,132.607c-0.336,0.404-0.703,0.75-1.1,1.041c-0.398,0.289-0.787,0.324-1.172,0.105
			c-0.119-0.352-0.08-0.629,0.119-0.832c0.199-0.201,0.439-0.391,0.719-0.568c0.281-0.178,0.555-0.375,0.82-0.59
			c0.268-0.215,0.4-0.508,0.398-0.877c-0.016-0.408-0.064-0.887-0.148-1.436s-0.125-1.092-0.121-1.631
			c0.002-0.537,0.105-1.02,0.311-1.451c0.203-0.43,0.582-0.74,1.137-0.928c0.314-0.107,0.744-0.135,1.289-0.084
			c0.543,0.053,1.078,0.154,1.604,0.305c0.527,0.152,0.994,0.344,1.402,0.576c0.41,0.232,0.662,0.486,0.756,0.764
			c0.045,0.129,0.07,0.254,0.082,0.375c0.01,0.119-0.057,0.246-0.197,0.375l-4.822,3.746l0.02,0.148
			c0.025,0.074,0.051,0.18,0.076,0.314l0.113,0.332c0.045,0.131,0.076,0.223,0.096,0.277c0.125,0.371,0.309,0.82,0.551,1.346
			c0.24,0.527,0.535,1.014,0.885,1.463c0.348,0.449,0.742,0.805,1.182,1.066c0.441,0.264,0.93,0.303,1.465,0.121
			c0.203-0.07,0.361-0.17,0.471-0.299c0.111-0.131,0.219-0.271,0.322-0.42s0.211-0.289,0.32-0.418
			c0.111-0.131,0.26-0.229,0.443-0.291c0.096,0.277,0.125,0.561,0.09,0.852s-0.123,0.564-0.264,0.818
			c-0.141,0.252-0.322,0.48-0.543,0.678c-0.221,0.201-0.461,0.344-0.719,0.432c-0.703,0.238-1.35,0.188-1.943-0.158
			c-0.592-0.346-1.121-0.826-1.588-1.439c-0.467-0.615-0.871-1.271-1.213-1.971C112.422,133.65,112.141,133.07,111.922,132.607z
			 M113.635,126.546c-0.334,0.113-0.584,0.303-0.752,0.566c-0.168,0.262-0.279,0.559-0.332,0.887
			c-0.055,0.328-0.059,0.664-0.014,1.01c0.047,0.346,0.113,0.648,0.201,0.906c0.297-0.1,0.617-0.23,0.967-0.391
			c0.348-0.16,0.678-0.355,0.99-0.586c0.314-0.23,0.584-0.48,0.811-0.754c0.229-0.273,0.354-0.559,0.375-0.855
			c-0.428-0.35-0.803-0.604-1.125-0.762S114.059,126.402,113.635,126.546z"/>
		<path fill="#C9C9C9" d="M121.352,133.947c-0.34-0.998-0.484-2.078-0.438-3.24c0.049-1.162,0.254-2.299,0.619-3.414
			c0.363-1.113,0.855-2.164,1.48-3.15c0.623-0.984,1.318-1.805,2.086-2.459c-0.188-0.555-0.4-1.09-0.639-1.607
			s-0.488-1.037-0.748-1.557c-0.258-0.52-0.52-1.045-0.783-1.574c-0.262-0.529-0.504-1.086-0.725-1.672
			c-0.063-0.186-0.037-0.338,0.076-0.459s0.244-0.207,0.393-0.258c0.111-0.037,0.25-0.07,0.416-0.096s0.291,0.051,0.373,0.23
			l7.795,16.719c-0.029,0.154-0.07,0.277-0.121,0.367c-0.053,0.09-0.104,0.18-0.156,0.27s-0.09,0.158-0.115,0.209
			c0.006,0.018-0.012,0.039-0.055,0.064s-0.074,0.041-0.092,0.047c-0.273-0.072-0.545-0.314-0.82-0.727
			c-0.273-0.412-0.537-0.879-0.787-1.402s-0.486-1.037-0.709-1.539s-0.41-0.881-0.559-1.141c0.014,0.162,0.02,0.438,0.02,0.83
			c-0.002,0.393-0.033,0.857-0.098,1.395s-0.172,1.1-0.324,1.688c-0.15,0.59-0.369,1.158-0.656,1.709
			c-0.285,0.553-0.66,1.057-1.125,1.514c-0.463,0.457-1.027,0.799-1.693,1.025c-0.332,0.113-0.637,0.145-0.912,0.094
			s-0.521-0.168-0.738-0.352c-0.217-0.186-0.406-0.408-0.57-0.674C121.584,134.523,121.453,134.242,121.352,133.947z
			 M122.449,132.984c0.025,0.074,0.076,0.197,0.154,0.365c0.078,0.17,0.182,0.336,0.309,0.5c0.129,0.162,0.258,0.299,0.389,0.408
			c0.129,0.111,0.25,0.148,0.361,0.109c0.395-0.176,0.771-0.504,1.133-0.988s0.68-1.053,0.953-1.701
			c0.273-0.652,0.504-1.354,0.691-2.109c0.186-0.754,0.307-1.49,0.359-2.211c0.055-0.719,0.027-1.391-0.082-2.014
			c-0.109-0.625-0.291-1.129-0.547-1.518c-0.123-0.121-0.223-0.197-0.293-0.225s-0.162-0.021-0.273,0.016
			c-0.813,0.277-1.486,0.785-2.02,1.523c-0.531,0.738-0.926,1.568-1.178,2.49c-0.254,0.922-0.371,1.865-0.354,2.828
			C122.072,131.421,122.203,132.263,122.449,132.984z"/>
		<path fill="#C9C9C9" d="M144.691,125.412c-0.184-0.535-0.35-1.221-0.5-2.057s-0.256-1.725-0.318-2.662
			c-0.061-0.938-0.059-1.902,0.006-2.895s0.209-1.914,0.436-2.764c0.227-0.852,0.563-1.59,1.01-2.217s1.021-1.059,1.725-1.299
			c0.088,0.26,0.068,0.549-0.061,0.871c-0.127,0.322-0.285,0.645-0.475,0.967s-0.387,0.637-0.592,0.943
			c-0.205,0.309-0.332,0.572-0.379,0.795c-0.25,0.725-0.432,1.492-0.547,2.307c-0.115,0.813-0.178,1.629-0.188,2.447
			s0.041,1.637,0.154,2.453c0.113,0.818,0.293,1.588,0.539,2.309c0.037,0.111,0.113,0.275,0.23,0.494
			c0.115,0.219,0.246,0.438,0.393,0.654c0.146,0.219,0.305,0.396,0.477,0.535c0.17,0.139,0.32,0.186,0.449,0.141l0.084-0.027
			c0.018-0.008,0.033-0.023,0.045-0.047c0.311-0.725,0.523-1.467,0.635-2.229c0.113-0.76,0.172-1.527,0.176-2.303
			s-0.033-1.551-0.113-2.33c-0.078-0.777-0.154-1.545-0.227-2.305c-0.014-0.223-0.096-0.535-0.242-0.939
			c-0.148-0.402-0.266-0.807-0.352-1.211s-0.104-0.773-0.053-1.111s0.27-0.572,0.658-0.703c0.072-0.025,0.162-0.051,0.268-0.076
			s0.16-0.029,0.166-0.01c1.17,1.189,2.162,2.199,2.98,3.023c0.816,0.826,1.502,1.506,2.055,2.039
			c0.555,0.535,0.994,0.951,1.324,1.252s0.578,0.529,0.746,0.689s0.281,0.266,0.34,0.318s0.094,0.096,0.107,0.133
			c0.043,0.068,0.107,0.195,0.193,0.383c0.084,0.188,0.166,0.387,0.248,0.596c0.082,0.211,0.16,0.41,0.236,0.602
			c0.074,0.191,0.121,0.314,0.141,0.369c-0.186,0.063-0.391,0.123-0.619,0.18c-0.229,0.059-0.428-0.01-0.594-0.199l-6.063-6.168
			l-0.418-0.23c0.014,0.223,0.031,0.621,0.049,1.191c0.02,0.57,0.041,1.178,0.063,1.82c0.023,0.641,0.049,1.248,0.076,1.814
			c0.029,0.568,0.051,0.963,0.064,1.186c-0.018,0.314-0.027,0.752-0.033,1.313c-0.006,0.559-0.053,1.131-0.143,1.719
			c-0.088,0.586-0.236,1.123-0.443,1.605c-0.207,0.484-0.514,0.793-0.922,0.932c-0.332,0.113-0.645,0.102-0.939-0.035
			s-0.568-0.338-0.824-0.602c-0.254-0.264-0.471-0.551-0.648-0.863C144.895,125.902,144.768,125.634,144.691,125.412z"/>
		<path fill="#C9C9C9" d="M57.459,196.08c-0.495-1.275-0.998-2.6-1.508-3.975c-0.508-1.373-1.045-2.754-1.61-4.141
			c-0.564-1.385-1.163-2.75-1.795-4.092c-0.633-1.344-1.29-2.619-1.97-3.832c-0.176-0.271-0.303-0.434-0.384-0.488
			c-0.08-0.055-0.231-0.045-0.454,0.029c-0.443,0.152-0.846,0.365-1.205,0.643s-0.719,0.57-1.078,0.879
			c-0.359,0.307-0.719,0.6-1.078,0.877s-0.771,0.494-1.232,0.652c-0.24,0.082-0.449,0.105-0.625,0.072s-0.312-0.188-0.406-0.465
			c-0.043-0.129-0.074-0.264-0.09-0.402c-0.017-0.139,0.064-0.25,0.243-0.33l4.982-3.182c-0.175-0.395-0.232-0.668-0.173-0.824
			c0.062-0.154,0.212-0.273,0.452-0.355c0.314-0.105,0.604-0.137,0.866-0.094c0.263,0.047,0.561,0.012,0.893-0.102
			c0.832-0.283,1.632-0.633,2.398-1.049c0.766-0.416,1.526-0.85,2.279-1.303c0.754-0.453,1.51-0.885,2.267-1.297
			s1.542-0.758,2.355-1.035l0.095,0.277c0.044,0.131,0.087,0.27,0.128,0.422c0.041,0.15,0.047,0.305,0.017,0.457
			c-0.029,0.156-0.097,0.262-0.202,0.318c-0.196,0.086-0.485,0.223-0.868,0.402c-0.382,0.182-0.815,0.393-1.303,0.629
			c-0.485,0.238-0.995,0.484-1.528,0.738c-0.532,0.254-1.046,0.5-1.542,0.742c-0.495,0.24-0.932,0.461-1.307,0.66
			c-0.376,0.201-0.662,0.346-0.858,0.432c-0.154,0.094-0.345,0.217-0.572,0.365c-0.228,0.15-0.45,0.299-0.669,0.445
			s-0.406,0.277-0.563,0.393c-0.156,0.115-0.231,0.182-0.226,0.199l0.123,0.361l7.302,16.176l0.123,0.359
			c-0.006,0.045-0.033,0.1-0.082,0.168s-0.124,0.135-0.226,0.201s-0.231,0.109-0.389,0.133
			C57.882,196.167,57.689,196.146,57.459,196.08z"/>
		<path fill="#C9C9C9" d="M63.258,188.658c-0.119-0.289-0.305-0.715-0.559-1.279c-0.254-0.563-0.539-1.203-0.855-1.922
			c-0.316-0.717-0.646-1.471-0.987-2.262c-0.342-0.793-0.671-1.547-0.987-2.264c-0.316-0.719-0.604-1.363-0.86-1.936
			c-0.257-0.574-0.441-0.996-0.555-1.266c-0.013-0.037-0.053-0.143-0.122-0.314c-0.069-0.174-0.113-0.287-0.132-0.344l0.998-0.34
			c0.101,0.234,0.251,0.602,0.452,1.102c0.201,0.498,0.432,1.055,0.691,1.668c0.26,0.611,0.529,1.268,0.809,1.967
			c0.28,0.699,0.55,1.355,0.811,1.969c0.26,0.613,0.495,1.166,0.705,1.664c0.21,0.496,0.365,0.859,0.466,1.094
			c0.243,0.535,0.549,1.145,0.914,1.824c0.366,0.68,0.802,1.279,1.309,1.799c0.507,0.518,1.063,0.91,1.671,1.18
			c0.607,0.268,1.271,0.279,1.992,0.033c0.61-0.207,1.075-0.584,1.396-1.125c0.32-0.543,0.533-1.178,0.637-1.904
			s0.123-1.5,0.059-2.326c-0.063-0.824-0.16-1.621-0.288-2.393c-0.129-0.771-0.275-1.473-0.44-2.109
			c-0.164-0.635-0.307-1.129-0.426-1.48c-0.314-0.924-0.682-1.773-1.101-2.549s-0.772-1.59-1.063-2.439
			c-0.069-0.203-0.045-0.361,0.071-0.473c0.117-0.113,0.258-0.197,0.425-0.254c0.037-0.012,0.094-0.025,0.171-0.041
			s0.135-0.031,0.172-0.043c0.249,0.369,0.447,0.709,0.594,1.02c0.147,0.311,0.285,0.609,0.414,0.896
			c0.128,0.285,0.246,0.586,0.353,0.9l0.35,1.025c0.183,0.537,0.403,1.23,0.662,2.082c0.259,0.85,0.493,1.766,0.703,2.746
			s0.361,1.986,0.454,3.018c0.094,1.031,0.073,2.002-0.06,2.914c-0.134,0.912-0.428,1.713-0.884,2.404
			c-0.455,0.693-1.118,1.186-1.986,1.482c-0.647,0.219-1.275,0.254-1.885,0.1c-0.609-0.152-1.171-0.422-1.683-0.805
			s-0.979-0.844-1.398-1.381C63.844,189.759,63.509,189.212,63.258,188.658z"/>
		<path fill="#C9C9C9" d="M83.418,187.242c-0.496-1.275-0.998-2.6-1.508-3.975c-0.508-1.373-1.045-2.754-1.609-4.139
			c-0.564-1.387-1.164-2.75-1.796-4.094c-0.632-1.342-1.289-2.619-1.97-3.832c-0.175-0.27-0.303-0.434-0.383-0.488
			c-0.081-0.055-0.231-0.045-0.454,0.029c-0.443,0.152-0.846,0.365-1.205,0.643s-0.719,0.57-1.078,0.879
			c-0.359,0.307-0.719,0.6-1.078,0.877s-0.771,0.494-1.232,0.652c-0.24,0.082-0.449,0.105-0.625,0.074
			c-0.176-0.033-0.313-0.189-0.406-0.467c-0.044-0.129-0.074-0.264-0.091-0.402s0.065-0.248,0.244-0.33l4.982-3.182
			c-0.176-0.395-0.232-0.668-0.173-0.824c0.062-0.154,0.212-0.273,0.452-0.354c0.314-0.107,0.603-0.139,0.866-0.094
			c0.263,0.045,0.561,0.01,0.893-0.104c0.832-0.283,1.632-0.633,2.398-1.049c0.766-0.414,1.525-0.85,2.279-1.303
			c0.754-0.451,1.51-0.885,2.268-1.297c0.756-0.412,1.541-0.758,2.355-1.035l0.094,0.277c0.045,0.131,0.086,0.27,0.127,0.422
			c0.043,0.15,0.047,0.305,0.018,0.459s-0.098,0.26-0.201,0.316c-0.197,0.088-0.486,0.223-0.869,0.404
			c-0.381,0.18-0.816,0.391-1.303,0.627c-0.486,0.24-0.994,0.484-1.527,0.738s-1.047,0.5-1.543,0.742
			c-0.496,0.24-0.932,0.461-1.307,0.66c-0.375,0.201-0.662,0.346-0.859,0.432c-0.152,0.094-0.344,0.217-0.572,0.365
			c-0.227,0.15-0.45,0.299-0.668,0.445c-0.219,0.146-0.406,0.277-0.563,0.393c-0.156,0.115-0.231,0.182-0.226,0.201l0.123,0.359
			l7.302,16.176l0.123,0.361c-0.006,0.043-0.033,0.1-0.084,0.166c-0.047,0.068-0.123,0.135-0.225,0.201s-0.23,0.109-0.389,0.133
			C83.84,187.33,83.648,187.308,83.418,187.242z"/>
		<path fill="#C9C9C9" d="M87.203,177.628c-0.166-0.789-0.342-1.59-0.525-2.404c-0.186-0.814-0.342-1.627-0.475-2.439
			c-0.131-0.811-0.201-1.602-0.205-2.375c-0.004-0.771,0.113-1.482,0.357-2.133c0.242-0.65,0.625-1.238,1.146-1.768
			c0.521-0.527,1.244-0.949,2.17-1.264c0.758-0.26,1.482-0.324,2.174-0.199c0.693,0.125,1.34,0.385,1.938,0.779
			c0.6,0.395,1.146,0.895,1.641,1.5s0.943,1.24,1.346,1.908s0.764,1.35,1.084,2.045c0.318,0.697,0.58,1.34,0.781,1.932
			c0.334,0.98,0.508,2.008,0.523,3.086c0.018,1.078-0.133,2.109-0.447,3.094s-0.809,1.865-1.484,2.641
			c-0.674,0.775-1.547,1.346-2.619,1.711c-0.926,0.314-1.777,0.326-2.557,0.035c-0.781-0.291-1.484-0.748-2.107-1.371
			c-0.625-0.623-1.16-1.344-1.604-2.162s-0.789-1.588-1.033-2.311L87.203,177.628z M88.203,177.568
			c0.219,0.646,0.525,1.332,0.916,2.055s0.854,1.355,1.387,1.895c0.535,0.541,1.15,0.936,1.842,1.184
			c0.693,0.248,1.457,0.23,2.289-0.053c0.98-0.332,1.732-0.867,2.256-1.602c0.523-0.736,0.883-1.555,1.082-2.459
			c0.197-0.902,0.246-1.832,0.148-2.789c-0.1-0.957-0.281-1.822-0.545-2.6c-0.246-0.721-0.592-1.557-1.039-2.508
			s-0.994-1.813-1.639-2.584s-1.391-1.357-2.238-1.76c-0.85-0.402-1.773-0.434-2.771-0.094c-0.703,0.238-1.256,0.613-1.66,1.123
			c-0.404,0.508-0.699,1.1-0.883,1.77c-0.184,0.672-0.273,1.393-0.27,2.164c0.006,0.773,0.064,1.537,0.178,2.293
			s0.256,1.48,0.43,2.174C87.861,176.472,88.033,177.068,88.203,177.568z"/>
		<path fill="#C9C9C9" d="M97.971,164.988c-0.199-0.16-0.369-0.359-0.514-0.6c-0.145-0.238-0.264-0.486-0.361-0.742
			s-0.184-0.51-0.26-0.764c-0.076-0.252-0.148-0.48-0.217-0.684l-0.133-0.389c-0.063-0.184-0.123-0.375-0.18-0.572
			s-0.111-0.391-0.166-0.578c-0.053-0.188-0.094-0.32-0.119-0.395c0-0.061,0.068-0.166,0.203-0.314
			c0.135-0.15,0.242-0.229,0.322-0.234c0.34-0.033,0.578,0.061,0.715,0.283c0.139,0.221,0.242,0.469,0.316,0.742
			c0.072,0.275,0.148,0.512,0.227,0.713s0.229,0.262,0.451,0.188l3.854-1.313c0.408-0.139,0.781-0.131,1.121,0.02
			c0.342,0.152,0.645,0.381,0.912,0.68c0.268,0.301,0.488,0.629,0.66,0.982c0.172,0.355,0.305,0.67,0.4,0.947
			c0.283,0.832,0.436,1.705,0.455,2.615c0.021,0.91-0.035,1.834-0.172,2.766c-0.135,0.934-0.301,1.842-0.496,2.723
			c-0.195,0.883-0.367,1.709-0.518,2.482l0.17,0.498c0.852-0.289,1.555-0.57,2.113-0.842c0.557-0.271,1.084-0.539,1.582-0.803
			c0.5-0.262,1.027-0.529,1.584-0.803c0.559-0.271,1.271-0.557,2.141-0.852l0.555-0.189c0.258-0.088,0.537-0.178,0.836-0.268
			c0.299-0.092,0.568-0.18,0.809-0.262l0.555-0.188c0.191,0.018,0.326,0.078,0.404,0.186c0.078,0.109,0.139,0.229,0.184,0.357
			c0.074,0.221,0.102,0.434,0.078,0.639c-0.023,0.203-0.162,0.391-0.414,0.559c-0.785-0.063-1.52-0.01-2.203,0.162
			c-0.686,0.17-1.346,0.395-1.982,0.674c-0.639,0.279-1.242,0.598-1.811,0.957s-1.15,0.697-1.744,1.012
			c-0.596,0.316-1.201,0.609-1.82,0.883s-1.273,0.455-1.965,0.545c0.201,0.592,0.438,1.15,0.709,1.678
			c0.273,0.525,0.51,1.086,0.711,1.676c0.063,0.186,0.119,0.395,0.166,0.625c0.049,0.23-0.057,0.391-0.316,0.479
			c-0.111,0.039-0.221,0.049-0.328,0.035c-0.109-0.014-0.205-0.09-0.293-0.225c-0.037-0.049-0.113-0.18-0.225-0.389
			c-0.113-0.209-0.223-0.424-0.33-0.646c-0.105-0.221-0.209-0.434-0.309-0.637s-0.18-0.357-0.234-0.461
			c-0.133-0.326-0.332-0.82-0.598-1.484c-0.268-0.662-0.574-1.424-0.918-2.287c-0.346-0.861-0.703-1.762-1.074-2.697
			c-0.369-0.938-0.727-1.832-1.068-2.686s-0.639-1.619-0.891-2.297C98.295,165.818,98.102,165.314,97.971,164.988z M98.828,164.324
			c0.113,0.271,0.275,0.676,0.488,1.211c0.215,0.537,0.463,1.148,0.75,1.834c0.285,0.688,0.58,1.408,0.889,2.158
			c0.307,0.752,0.602,1.467,0.885,2.145c0.281,0.678,0.533,1.293,0.752,1.848c0.221,0.555,0.383,0.957,0.49,1.211
			c0.211-0.836,0.438-1.744,0.682-2.725s0.451-1.979,0.621-2.996s0.256-2.021,0.258-3.012c0.004-0.992-0.141-1.914-0.43-2.764
			c-0.119-0.352-0.297-0.646-0.533-0.887c-0.236-0.238-0.504-0.416-0.801-0.531s-0.619-0.17-0.969-0.166
			c-0.35,0.006-0.689,0.064-1.023,0.178c-0.166,0.057-0.391,0.154-0.674,0.293c-0.283,0.137-0.553,0.301-0.809,0.49
			c-0.254,0.191-0.455,0.404-0.602,0.639c-0.146,0.236-0.176,0.484-0.088,0.742L98.828,164.324z"/>
		<path fill="#C9C9C9" d="M117.975,175.384c-0.139-0.344-0.375-0.889-0.711-1.631c-0.334-0.74-0.711-1.588-1.127-2.541
			c-0.416-0.951-0.859-1.945-1.326-2.982s-0.906-2.029-1.32-2.971c-0.414-0.943-0.785-1.791-1.113-2.545
			c-0.33-0.756-0.563-1.305-0.701-1.65l-0.066-0.193c-0.031-0.092-0.072-0.197-0.123-0.314c-0.049-0.117-0.094-0.23-0.131-0.342
			l-0.17-0.5c-0.039-0.109-0.072-0.227-0.104-0.352c-0.033-0.123-0.064-0.23-0.096-0.322l-0.076-0.223
			c-0.025-0.197,0.02-0.336,0.137-0.418c0.117-0.08,0.24-0.143,0.369-0.188c0.037-0.012,0.094-0.025,0.172-0.043
			c0.076-0.016,0.133-0.029,0.17-0.043l6.535,15.014c0.039,0.049,0.09,0.125,0.154,0.227c0.066,0.102,0.146,0.219,0.244,0.35
			c0.096,0.133,0.172,0.252,0.229,0.355c0.057,0.105,0.104,0.182,0.141,0.23l0.057,0.166c0.037,0.111,0.035,0.227-0.008,0.344
			c-0.041,0.117-0.105,0.232-0.191,0.344c-0.086,0.113-0.172,0.209-0.258,0.289s-0.166,0.135-0.24,0.16
			c-0.055,0.018-0.139,0-0.25-0.055S117.994,175.441,117.975,175.384z"/>
		<path fill="#C9C9C9" d="M120.943,176.199c-0.166,0.057-0.301,0.053-0.406-0.016c-0.105-0.066-0.197-0.166-0.271-0.295
			s-0.129-0.275-0.164-0.439c-0.035-0.162-0.068-0.291-0.1-0.383l-2.152-22.23c-0.021-0.18-0.004-0.387,0.051-0.621
			s0.131-0.42,0.229-0.557c0.111,0.146,0.254,0.289,0.424,0.428c0.172,0.137,0.361,0.244,0.572,0.316l13.725,15.041
			c0.023,0.012,0.049,0.055,0.074,0.129l0.057,0.166c0.063,0.186,0.082,0.359,0.055,0.523s-0.133,0.277-0.318,0.34
			c-0.24,0.082-0.443,0.027-0.611-0.162l-3.471-3.832c-0.006-0.018-0.131-0.002-0.371,0.049s-0.426,0.098-0.555,0.143
			c-0.074,0.025-0.18,0.066-0.314,0.121c-0.135,0.059-0.275,0.115-0.42,0.176c-0.145,0.059-0.275,0.119-0.389,0.178
			s-0.18,0.092-0.199,0.1c-0.398,0.217-0.916,0.502-1.551,0.852c-0.633,0.352-1.25,0.705-1.85,1.064
			c-0.6,0.357-1.117,0.674-1.551,0.945s-0.662,0.432-0.688,0.48l0.545,6.965c0.025,0.135,0.002,0.246-0.072,0.334
			C121.148,176.099,121.055,176.162,120.943,176.199z M119.111,154.541c0,0.063,0,0.141,0,0.232c0.002,0.092,0,0.197-0.002,0.311
			s0.002,0.221,0.016,0.318c0.014,0.1,0.018,0.17,0.01,0.213c0.035,0.527,0.096,1.156,0.18,1.889l0.512,4.686
			c0.092,0.814,0.186,1.557,0.279,2.227s0.178,1.25,0.252,1.74s0.133,0.801,0.176,0.93c0.26-0.088,0.613-0.229,1.064-0.424
			c0.449-0.193,0.922-0.422,1.422-0.686c0.498-0.262,1.004-0.531,1.518-0.811c0.516-0.277,0.967-0.557,1.357-0.834
			c0.391-0.275,0.701-0.531,0.932-0.766c0.229-0.232,0.32-0.422,0.27-0.57c-0.014-0.037-0.039-0.096-0.076-0.176
			s-0.072-0.135-0.104-0.166L119.111,154.541z"/>
		<path fill="#C9C9C9" d="M135.371,169.123c-0.033-0.154-0.092-0.402-0.176-0.746c-0.086-0.342-0.174-0.703-0.262-1.086
			c-0.09-0.383-0.178-0.75-0.268-1.102c-0.088-0.352-0.154-0.592-0.199-0.721c-0.1-0.295-0.252-0.754-0.453-1.379
			c-0.201-0.621-0.436-1.32-0.699-2.098l-1.682-4.936c-0.264-0.777-0.506-1.473-0.727-2.09c-0.219-0.617-0.383-1.082-0.49-1.396
			c0.031-0.154,0.066-0.26,0.109-0.314c0.043-0.057,0.129-0.107,0.258-0.15l0.195-0.066c0.068,0.018,0.26,0.066,0.574,0.145
			l4.9,14.395c0.057-0.02,0.152-0.041,0.287-0.066c0.137-0.025,0.285-0.061,0.445-0.105c0.16-0.043,0.309-0.09,0.447-0.137
			c0.139-0.049,0.227-0.078,0.264-0.09c0.197-0.088,0.484-0.227,0.863-0.418s0.818-0.402,1.316-0.635
			c0.5-0.23,1.016-0.473,1.547-0.727c0.533-0.254,1.043-0.5,1.529-0.738s0.918-0.451,1.297-0.643s0.664-0.338,0.855-0.445
			c0.215-0.217,0.406-0.381,0.574-0.49c0.17-0.109,0.385-0.207,0.643-0.295c0.24-0.082,0.432-0.055,0.57,0.084
			c0.141,0.137,0.244,0.309,0.314,0.512c0.057,0.166,0.072,0.32,0.049,0.463s-0.057,0.303-0.1,0.482
			c-0.975,0.229-1.918,0.561-2.832,0.996c-0.916,0.434-1.811,0.91-2.688,1.426c-0.877,0.514-1.75,1.012-2.617,1.494
			c-0.867,0.48-1.754,0.875-2.66,1.184c-0.129,0.045-0.33,0.031-0.602-0.043C135.684,169.314,135.488,169.226,135.371,169.123z"/>
	</g>
	<g>
		<path fill="none" stroke="#A3A3A3" stroke-width="2" stroke-miterlimit="10" d="M71.028,47.504c-44.088,5.375-33.957,42.428-18,70
			"/>
		<path fill="none" stroke="#A3A3A3" stroke-width="2" stroke-miterlimit="10" d="M29.028,108.503
			c11.386,5.676,21.744,16.734,34.849,17.869c-0.925-10.539,1.705-27.895-3.849-33.869"/>
	</g>
	<g>
		<path fill="none" stroke="#FFFFFF" stroke-miterlimit="10" d="M98.717,46.53c32.197,4.882,23.289-30.358,24.443-12.998"/>
		<path fill="none" stroke="#FFFFFF" stroke-miterlimit="10" d="M80.438,29.561c0.705,19.926,31.92,5.299,16.367-8.732
			c-8.193-7.391-27.792,6.443-12.303,14.536"/>
		<path fill="none" stroke="#FFFFFF" stroke-miterlimit="10" d="M102.027,14.581c0.963,16.987,30.291,12.982,21.586-3.116
			c-6.492-12.005-31.715-0.532-16.707,5.827"/>
		<path fill="none" stroke="#FFFFFF" stroke-miterlimit="10" d="M91.176,33.985c-3.105,0.46-2.182,4.163,1.207,3.49
			c4.998-0.991,0.977-5.519-2.141-6.544c-1.842,2.435-2.127,6.076,1.154,7.047c6.049,1.789,2.807-6.523-1.395-6.368
			c-3.342,0.124-3.6,5.493-0.313,6.71c5.268,1.95,4.045-7.236-0.451-6.721c-3.854,0.442-2.297,6.575,1.768,6.541
			c5.121-0.043,2.822-6.377-0.162-6.084c-2.529,0.247-2.248,4.926,0.33,4.353c3.643-0.809-0.01-6.662-3.01-6.53
			c-0.773,2.034-0.898,7.502,3.02,6.308c2.857-0.872,0.863-5.983-2.041-5.264c-9.041,2.238,8.416,6.352,1.146,1.548
			c-1.111,2.11-0.305,4.146,2.156,4.076c0.527-3.367-3.051-4.324-3.418-0.636c2.531,0.59,3.105-3.286,1.223-3.696
			c-1.871-0.408-3.109,4.318-0.42,4.534c0.676-1.906-0.135-3.714-2.061-4.029c-1.023,2.782,0.221,5.291,3.377,4.475
			c0.039-0.652,0.158-1.479,0.029-2.121"/>
		<path fill="none" stroke="#FFFFFF" stroke-miterlimit="10" d="M113.41,18.646c-2.154,8.089,9.666,1.193,4.971-0.529
			c-1.689-0.62-3.568,2.776-2.824,4.196c1.307,2.49,4.141-0.17,3.863-2.315c-0.449-3.477-6.307-4.139-7.879-1.109
			c-1.346,2.589,1.852,4.797,4.365,3.679c2.609-1.16,0.924-4.879-1.672-4.452c-3.012,0.497-1.93,4.277,0.289,5.188
			c2.379,0.977,5.441-0.798,3.496-3.394c-1.736-2.318-5.375-0.527-4.195,2.178c0.736,1.689,3.922,1.969,4.621,0.231
			c1.133-2.817-4.121-5.07-5.971-3.298c-2.055,1.969-0.355,4.422,1.764,4.786c3.861,0.664,5.316-3.258,1.646-4.997
			c-2.68-1.27-6.158,0.063-4.488,3.477c1.332,2.726,8.199,3.369,7.982-0.652c-0.15-2.787-4.949-4.626-6.646-2.292
			c-1.773,2.438,1.277,4.822,3.682,3.898c2.045-0.786,2.617-4.138-0.201-4.45c-2.318-0.255-2.623,3.495-1.238,4.755
			c1.932,1.759,5.504,0.328,5.498-2.198c-0.006-2.573-4.246-4.622-5.838-2.186c-1.666,2.553,1.301,4.544,3.541,4.35
			c3.4-0.294,4.201-4.174,0.48-4.887c-7.459-1.428-0.244,9.887,2.061,3.783c0.932-2.471-3.082-4.721-5.119-3.592
			c-1.549,0.86-2.086,3.381,0.094,3.493c2.719,0.14,1.545-3.045,0.289-4.16c-2.408-2.138-6.094-1.461-4.389,2.236
			c0.695,1.509,2.977,3.029,4.133,1.196c0.85-1.343-0.438-4.135-1.953-2.666c-3.834,3.717,5.123,5.093,3.393,1.168
			c-1.113-2.522-4.008,2.674-0.662,2.477c0.322-0.752,0.199-1.477-0.246-2.153"/>
		<path fill="none" stroke="#A3A3A3" stroke-miterlimit="10" d="M76.528,17.004c-0.594,4.252-1.2,9.075-4,12.5"/>
		<path fill="none" stroke="#A3A3A3" stroke-miterlimit="10" d="M104.527,0.498c4.896,0.44,8.867,2.399,14,1.875"/>
	</g>
</g>
</svg>
